<svg width="18" height="18" viewBox="0 0 18 18" fill="none" xmlns="http://www.w3.org/2000/svg">
<path d="M13.5 2.25H4.5C3.225 2.25 2.25 3.225 2.25 4.5V13.5C2.25 14.775 3.225 15.75 4.5 15.75H13.5C14.775 15.75 15.75 14.775 15.75 13.5V4.5C15.75 3.225 14.775 2.25 13.5 2.25ZM9 6.75C10.275 6.75 11.25 7.725 11.25 9C11.25 10.275 10.275 11.25 9 11.25C7.725 11.25 6.75 10.275 6.75 9C6.75 7.725 7.725 6.75 9 6.75ZM11.85 5.25C11.85 4.725 12.3 4.35 12.75 4.35C13.2 4.35 13.65 4.8 13.65 5.25C13.65 5.7 13.275 6.15 12.75 6.15C12.225 6.15 11.85 5.775 11.85 5.25ZM13.5 14.25H4.5C4.05 14.25 3.75 13.95 3.75 13.5V9H5.25C5.25 11.1 6.9 12.75 9 12.75C11.1 12.75 12.75 11.1 12.75 9H14.25V13.5C14.25 13.95 13.95 14.25 13.5 14.25Z" fill="#212121"/>
</svg>
