<svg width="41" height="40" viewBox="0 0 41 40" fill="none" xmlns="http://www.w3.org/2000/svg">
<circle cx="11.3333" cy="14" r="10" fill="#EABB17"/>
<path d="M14.9693 13C15.3053 11.254 15.7633 9.686 16.3093 8.36C16.9113 6.894 17.6053 5.772 18.3253 5.034C19.0413 4.298 19.7193 4 20.3333 4C20.9473 4 21.6253 4.298 22.3413 5.034C23.0613 5.774 23.7553 6.894 24.3573 8.36C24.9033 9.686 25.3613 11.254 25.6973 13H14.9693ZM14.4593 7.6C14.8862 6.52376 15.4416 5.50303 16.1133 4.56C13.9155 5.16339 11.8715 6.22822 10.1176 7.68354C8.36358 9.13887 6.93989 10.9513 5.94132 13H12.9353C13.2993 10.986 13.8173 9.156 14.4593 7.6ZM26.2073 7.6C25.7802 6.52447 25.2249 5.50443 24.5533 4.562C26.7509 5.16516 28.7948 6.22969 30.5488 7.68466C32.3027 9.13963 33.7265 10.9516 34.7253 13H27.7313C27.3673 10.986 26.8493 9.156 26.2073 7.6ZM28.0333 15H35.5373C36.0053 16.424 36.2773 17.936 36.3253 19.506C34.8526 18.5112 33.1125 17.9867 31.3353 18.002C30.2553 18.002 29.2393 18.182 28.3073 18.512C28.2672 17.3379 28.1758 16.1661 28.0333 15ZM26.3313 19.516C26.315 18.0058 26.2101 16.4979 26.0173 15H14.6493C14.4366 16.6581 14.331 18.3283 14.3333 20C14.3333 21.75 14.4453 23.428 14.6493 25H22.6133C23.1573 22.744 24.4733 20.782 26.3313 19.516ZM22.3393 27H14.9693C15.3053 28.746 15.7633 30.314 16.3093 31.64C16.9113 33.106 17.6053 34.228 18.3253 34.966C19.0413 35.702 19.7193 36 20.3333 36C20.9473 36 21.6253 35.702 22.3413 34.966C22.8493 34.446 23.3453 33.732 23.8053 32.84C22.8233 30.972 22.3333 29.1 22.3333 27.364L22.3393 27ZM5.94132 27C6.94033 29.0486 8.36443 30.8607 10.1188 32.3157C11.8731 33.7707 13.9173 34.8351 16.1153 35.438C15.4432 34.4963 14.8871 33.477 14.4593 32.402C13.8193 30.842 13.2993 29.014 12.9353 27H5.94132ZM12.6333 25H5.12932C4.60004 23.3862 4.33134 21.6984 4.33332 20C4.33332 18.254 4.61332 16.574 5.12932 15H12.6333C12.4373 16.59 12.3333 18.268 12.3333 20C12.3333 21.732 12.4373 23.41 12.6333 25ZM38.3333 27.364C38.3333 23.298 35.4033 20.002 31.3353 20.002C27.2693 20.002 24.3333 23.298 24.3333 27.364C24.3333 30.412 26.2973 34.424 30.8453 37.836C31.1353 38.056 31.5353 38.056 31.8253 37.836C36.3773 34.424 38.3333 30.412 38.3333 27.364ZM34.3333 27C34.3333 27.7956 34.0173 28.5587 33.4546 29.1213C32.892 29.6839 32.129 30 31.3333 30C30.5377 30 29.7746 29.6839 29.212 29.1213C28.6494 28.5587 28.3333 27.7956 28.3333 27C28.3333 26.2044 28.6494 25.4413 29.212 24.8787C29.7746 24.3161 30.5377 24 31.3333 24C32.129 24 32.892 24.3161 33.4546 24.8787C34.0173 25.4413 34.3333 26.2044 34.3333 27Z" fill="#212121"/>
</svg>
