<svg width="63" height="13" viewBox="0 0 63 13" fill="none" xmlns="http://www.w3.org/2000/svg">
<path d="M0.832 6.9C0.784 10.132 3.312 12.772 6.656 12.724C10 12.772 12.528 10.132 12.48 6.9C12.528 3.684 10 1.012 6.656 1.076C3.312 1.012 0.784 3.684 0.832 6.9ZM10.352 6.9C10.352 9.156 8.848 10.82 6.656 10.82C4.464 10.82 2.96 9.156 2.96 6.9C2.96 4.644 4.464 2.98 6.656 2.98C8.848 2.98 10.352 4.644 10.352 6.9ZM15.3266 12.5H17.2786V6.068H19.4706V4.356H17.2786V3.46C17.2786 2.676 17.6466 2.34 18.5266 2.34C18.7986 2.34 19.1186 2.372 19.4866 2.436V0.787999C19.0706 0.691999 18.6226 0.643999 18.1586 0.643999C16.2226 0.643999 15.3266 1.556 15.3266 3.3V4.356H13.7586V6.068H15.3266V12.5ZM21.7641 12.5H23.7161V6.068H25.9081V4.356H23.7161V3.46C23.7161 2.676 24.0841 2.34 24.9641 2.34C25.2361 2.34 25.5561 2.372 25.9241 2.436V0.787999C25.5081 0.691999 25.0601 0.643999 24.5961 0.643999C22.6601 0.643999 21.7641 1.556 21.7641 3.3V4.356H20.1961V6.068H21.7641V12.5ZM27.1631 1.78C27.1631 2.484 27.6591 2.996 28.4111 2.996C29.1311 2.996 29.6431 2.484 29.6431 1.78C29.6431 1.076 29.1311 0.563999 28.4111 0.563999C27.6591 0.563999 27.1631 1.076 27.1631 1.78ZM27.4351 12.5H29.3871V4.356H27.4351V12.5ZM31.3134 8.436C31.3134 10.948 33.0254 12.724 35.5534 12.724C37.1054 12.724 38.3854 12.052 39.0734 10.884L37.6014 9.844C37.1374 10.564 36.4334 10.948 35.6014 10.948C34.2094 10.948 33.3134 9.956 33.3134 8.436C33.3134 6.9 34.2094 5.924 35.6014 5.924C36.4814 5.924 37.1374 6.292 37.6014 7.012L39.0734 5.972C38.3854 4.82 37.1054 4.132 35.5534 4.132C33.0254 4.132 31.3134 5.908 31.3134 8.436ZM48.1583 9.012C48.1903 8.756 48.2063 8.5 48.2063 8.26C48.2063 5.78 46.5903 4.132 44.2383 4.132C41.7903 4.132 40.1103 5.94 40.1103 8.468C40.1103 11.012 41.8383 12.724 44.4303 12.724C45.9183 12.724 47.1663 12.164 47.9343 11.156L46.7663 10.004C46.1743 10.692 45.4223 11.028 44.4943 11.028C43.1503 11.028 42.3023 10.308 42.0943 9.012H48.1583ZM42.0943 7.684C42.3023 6.516 43.0543 5.828 44.2543 5.828C45.4223 5.828 46.1743 6.484 46.2543 7.684H42.0943Z" fill="black"/>
<path d="M62.9015 12.5L59.2055 6.788L62.7735 1.3H60.1495L57.7655 5.044L55.3815 1.3H52.7415L56.3095 6.804L52.6295 12.5H55.3175L57.7655 8.628L60.1975 12.5H62.9015Z" fill="#EABB17"/>
</svg>
