<svg width="106" height="27" viewBox="0 0 106 27" fill="none" xmlns="http://www.w3.org/2000/svg">
<path d="M0.3 17.25C0.225 22.3 4.175 26.425 9.4 26.35C14.625 26.425 18.575 22.3 18.5 17.25C18.575 12.225 14.625 8.05 9.4 8.15C4.175 8.05 0.225 12.225 0.3 17.25ZM15.175 17.25C15.175 20.775 12.825 23.375 9.4 23.375C5.975 23.375 3.625 20.775 3.625 17.25C3.625 13.725 5.975 11.125 9.4 11.125C12.825 11.125 15.175 13.725 15.175 17.25ZM22.9479 26H25.9979V15.95H29.4229V13.275H25.9979V11.875C25.9979 10.65 26.5729 10.125 27.9479 10.125C28.3729 10.125 28.8729 10.175 29.4479 10.275V7.7C28.7979 7.55 28.0979 7.475 27.3729 7.475C24.3479 7.475 22.9479 8.9 22.9479 11.625V13.275H20.4979V15.95H22.9479V26ZM33.0064 26H36.0564V15.95H39.4814V13.275H36.0564V11.875C36.0564 10.65 36.6314 10.125 38.0064 10.125C38.4314 10.125 38.9314 10.175 39.5064 10.275V7.7C38.8564 7.55 38.1564 7.475 37.4314 7.475C34.4064 7.475 33.0064 8.9 33.0064 11.625V13.275H30.5564V15.95H33.0064V26ZM41.4424 9.25C41.4424 10.35 42.2174 11.15 43.3924 11.15C44.5174 11.15 45.3174 10.35 45.3174 9.25C45.3174 8.15 44.5174 7.35 43.3924 7.35C42.2174 7.35 41.4424 8.15 41.4424 9.25ZM41.8674 26H44.9174V13.275H41.8674V26ZM47.9271 19.65C47.9271 23.575 50.6021 26.35 54.5521 26.35C56.9771 26.35 58.9771 25.3 60.0521 23.475L57.7521 21.85C57.0271 22.975 55.9271 23.575 54.6271 23.575C52.4521 23.575 51.0521 22.025 51.0521 19.65C51.0521 17.25 52.4521 15.725 54.6271 15.725C56.0021 15.725 57.0271 16.3 57.7521 17.425L60.0521 15.8C58.9771 14 56.9771 12.925 54.5521 12.925C50.6021 12.925 47.9271 15.7 47.9271 19.65ZM74.2473 20.55C74.2973 20.15 74.3223 19.75 74.3223 19.375C74.3223 15.5 71.7973 12.925 68.1223 12.925C64.2973 12.925 61.6723 15.75 61.6723 19.7C61.6723 23.675 64.3723 26.35 68.4223 26.35C70.7473 26.35 72.6973 25.475 73.8973 23.9L72.0723 22.1C71.1473 23.175 69.9723 23.7 68.5223 23.7C66.4223 23.7 65.0973 22.575 64.7723 20.55H74.2473ZM64.7723 18.475C65.0973 16.65 66.2723 15.575 68.1473 15.575C69.9723 15.575 71.1473 16.6 71.2723 18.475H64.7723Z" fill="black"/>
<path d="M105.591 26L97.2749 13.148L105.303 0.799998H99.3989L94.0349 9.224L88.6709 0.799998H82.7309L90.7589 13.184L82.4789 26H88.5269L94.0349 17.288L99.5069 26H105.591Z" fill="#EABB17"/>
</svg>
