<svg width="40" height="40" viewBox="0 0 40 40" fill="none" xmlns="http://www.w3.org/2000/svg">
<circle cx="15" cy="13" r="10" fill="#EABB17"/>
<path fill-rule="evenodd" clip-rule="evenodd" d="M10.8917 21.9041C11.6933 22.8841 13.7333 26.515 14.1667 28.3333H25.8333C26.2667 26.5166 28.3042 22.8858 29.1058 21.9066C30.4757 20.2355 31.3381 18.2069 31.5908 16.0608C31.8401 13.9189 31.4672 11.7505 30.5167 9.81498C29.5571 7.86505 28.0651 6.22661 26.2133 5.08915C24.3452 3.94013 22.1948 3.33228 20.0017 3.33331C17.8042 3.33331 15.6508 3.94165 13.79 5.08748C11.9377 6.22451 10.4452 7.86267 9.48498 9.81248C8.5339 11.7473 8.16012 13.9151 8.40832 16.0566C8.65748 18.1958 9.51832 20.2233 10.8917 21.9041ZM20.8333 9.99998L15.8333 17.5H19.1667V22.5L24.1667 15H20.8333V9.99998Z" fill="#212121"/>
<path d="M14.1667 30.8333C14.1667 30.6123 14.2544 30.4004 14.4107 30.2441C14.567 30.0878 14.779 30 15 30H25C25.221 30 25.433 30.0878 25.5892 30.2441C25.7455 30.4004 25.8333 30.6123 25.8333 30.8333C25.8333 31.0543 25.7455 31.2663 25.5892 31.4226C25.433 31.5789 25.221 31.6667 25 31.6667H15C14.779 31.6667 14.567 31.5789 14.4107 31.4226C14.2544 31.2663 14.1667 31.0543 14.1667 30.8333ZM25.8333 33.3333H14.1667V35C14.1667 35.442 14.3422 35.8659 14.6548 36.1785C14.9674 36.4911 15.3913 36.6667 15.8333 36.6667H24.1667C24.6087 36.6667 25.0326 36.4911 25.3452 36.1785C25.6577 35.8659 25.8333 35.442 25.8333 35V33.3333Z" fill="#212121"/>
</svg>
