<svg width="18" height="18" viewBox="0 0 18 18" fill="none" xmlns="http://www.w3.org/2000/svg">
<path d="M16.3125 4.47013C15.7746 4.70216 15.1892 4.86915 14.5863 4.93419C15.2123 4.5623 15.6811 3.97477 15.9047 3.28184C15.3173 3.63128 14.6738 3.87631 14.0027 4.00606C13.7222 3.70623 13.383 3.46736 13.0062 3.30436C12.6294 3.14135 12.223 3.05769 11.8125 3.0586C10.1514 3.0586 8.81542 4.40509 8.81542 6.05743C8.81542 6.28947 8.84354 6.5215 8.88925 6.74474C6.40195 6.61466 4.18359 5.42638 2.70879 3.60704C2.44007 4.06603 2.29924 4.58865 2.30098 5.12052C2.30098 6.16114 2.83008 7.07872 3.63691 7.61837C3.16143 7.59965 2.69709 7.46896 2.28164 7.23693V7.27384C2.28164 8.73107 3.31172 9.93869 4.68457 10.2164C4.4268 10.2834 4.16163 10.3176 3.89531 10.3184C3.70019 10.3184 3.51562 10.299 3.3293 10.2727C3.70898 11.461 4.81465 12.324 6.13124 12.3522C5.10117 13.159 3.81094 13.6336 2.40996 13.6336C2.1586 13.6336 1.92657 13.6248 1.68575 13.5967C3.01465 14.4492 4.5914 14.9414 6.28945 14.9414C11.8019 14.9414 14.8183 10.3746 14.8183 6.41075C14.8183 6.28068 14.8183 6.1506 14.8095 6.02052C15.3931 5.59337 15.9047 5.06427 16.3125 4.47013Z" fill="#212121"/>
</svg>
